# xmcd CD database file
#
# Track frame offsets:
#	150
#	16393
#	31057
#	52488
#	70951
#	89099
#	107391
#	124969
#	144290
#	164321
#	178712
#	193549
#
# Disc length: 2762 seconds
#
# Revision: 0
# Processed by: cddbd v1.4PL0 Copyright (c) Steve Scherf et al.
# Submitted via: CDex 1.40Beta9
#
DISCID=a70ac80c
DTITLE=Texas Son - Bare Hand Blues Guitar
DYEAR=2001
DGENRE=Blues
TTITLE0=Flip Top Blues
TTITLE1=I Believe
TTITLE2=Goodbye Baby
TTITLE3=Albert's Groove
TTITLE4=Cool Zone
TTITLE5=Careful What You Do
TTITLE6=Keep Rollin'
TTITLE7=Fired Up
TTITLE8=John's Dilema
TTITLE9=If You Love Me Like You Say
TTITLE10=Consider Baby
TTITLE11=F-2 Tornado
EXTD=YEAR: 2001 ID3G: 0
EXTT0=
EXTT1=
EXTT2=
EXTT3=
EXTT4=
EXTT5=
EXTT6=
EXTT7=
EXTT8=
EXTT9=
EXTT10=
EXTT11=
PLAYORDER=
